<svg width="164" height="112" viewBox="0 0 164 112" fill="none" xmlns="http://www.w3.org/2000/svg">
<path fill-rule="evenodd" clip-rule="evenodd" d="M23.196 0.00729514L23.1496 0L18.0843 0.0104228C17.9703 0.159446 17.8121 0.153639 17.6593 0.148028C17.6304 0.146968 17.6017 0.145915 17.5736 0.145915C15.5412 0.312676 13.54 0.760846 11.6223 1.46958C8.50595 2.63691 6.02539 4.52339 4.83722 7.77522C4.28483 9.26565 4.11806 10.8811 4.35778 12.455C6.76539 10.0473 9.61075 8.12959 12.7479 6.80592C15.7705 5.49268 21.2736 4.45043 22.5347 4.87775C19.6477 5.90959 16.844 7.19156 14.1863 8.72367C9.66286 11.3397 5.62933 14.529 2.66933 18.8857C2.09609 19.7403 2.15862 20.324 2.85693 20.8034C3.83665 21.4705 4.32651 21.3871 4.93102 20.3969C5.80651 19.0212 6.76538 17.6975 7.80764 16.4364C8.03693 16.0403 8.53722 15.884 8.95413 16.0924C11.4868 17.0409 14.2279 17.3014 16.8857 16.822C19.335 16.4364 21.2736 15.4566 22.5972 13.3096C23.5978 11.6628 24.6401 10.0369 25.724 8.44227C27.3916 5.94085 29.0384 3.47071 31.8525 1.98028C30.2891 1.3862 28.6632 0.938029 27.0164 0.65662C25.7494 0.409398 24.5027 0.213081 23.196 0.00729514ZM60.4728 67.8821C60.1914 69.4038 60.5353 70.5398 62.0049 71.0714V71.0297H64.3917C65.6632 70.5503 66.0072 69.5705 66.1322 68.2886C66.1735 67.8657 66.2181 67.4463 66.2628 67.0265L66.2629 67.0263L66.2629 67.0261L66.2629 67.026C66.3537 66.1732 66.4446 65.3191 66.5075 64.4322C66.8722 60.43 66.643 56.3964 65.8091 52.4671C65.4235 50.8516 64.8503 49.2883 64.0998 47.7978C61.6922 42.9722 56.3142 41.7528 52.3119 43.0764C49.5708 43.8685 47.4863 46.0781 46.8714 48.8609C46.2564 51.3102 47.257 52.8111 49.7167 53.2905C49.8314 53.3322 49.9564 53.3635 50.0711 53.3739C50.9778 53.4781 51.7908 52.8319 51.895 51.9252C51.9367 51.7514 51.9599 51.5777 51.983 51.404C51.9946 51.3172 52.0062 51.2303 52.0201 51.1435C52.166 49.3091 53.6252 47.8604 55.4595 47.704C57.8046 47.4851 59.4514 48.4128 60.1497 50.3513C60.5457 51.6959 60.65 53.1133 60.452 54.4995C60.3894 54.8852 60.2122 54.9894 59.7953 54.9894C57.6379 54.8539 55.47 54.979 53.3438 55.3646C50.0815 55.9066 47.1945 57.7931 45.3809 60.5655C44.7764 61.3055 44.5367 62.2748 44.7243 63.2128C45.3392 65.7246 46.8088 67.5486 49.2998 68.3719C52.8122 69.5288 56.335 69.6539 59.8057 68.1426L60.4728 67.8821ZM57.2535 59.2082C57.4115 59.1981 57.5582 59.1887 57.69 59.1793V59.2105C60.4311 59.1167 60.4728 60.159 59.5869 61.8891C58.9094 63.2336 57.5858 63.7756 56.1996 64.1195C55.1156 64.4531 53.9795 64.5677 52.8435 64.4739C52.0826 64.4739 51.4052 63.9841 51.155 63.2545C50.8736 62.3998 51.0821 61.4618 51.7074 60.826C52.7288 59.7733 54.0525 59.544 55.3762 59.3669C56.0371 59.2863 56.7104 59.2431 57.2517 59.2083L57.2535 59.2082ZM164 48.8714C163.625 49.6843 162.968 50.3409 162.166 50.737C161.05 51.2269 159.748 50.7057 159.258 49.5905C159.174 49.3925 159.112 49.1736 159.091 48.9547C159.018 48.3815 158.789 47.8291 158.434 47.3705C158.122 46.8494 157.444 46.6826 156.923 47.0057C156.746 47.11 156.61 47.2559 156.517 47.4435C156.121 48.0376 155.829 48.6942 155.652 49.3821C154.317 53.624 153.765 58.0745 154.015 62.5145C154.119 63.3796 154.286 64.2342 154.526 65.068C154.766 66.1832 154.859 67.2984 153.744 68.0697C152.629 68.841 150.607 68.9243 149.669 68.299C148.658 67.4131 148.241 66.0269 148.595 64.7345C148.783 64.2759 148.856 63.7756 148.825 63.2753C148.689 59.6587 148.564 56.0421 148.439 52.4255C148.418 51.8588 148.406 51.2871 148.394 50.7129L148.394 50.7113L148.394 50.7097L148.393 50.7081L148.393 50.7065L148.393 50.7048C148.363 49.2749 148.332 47.8301 148.168 46.4116C147.981 44.8483 148.825 44.0561 149.93 43.3683C150.972 42.6491 152.379 42.7116 153.348 43.5246C154.067 44.1083 154.411 43.9207 155.005 43.3995C156.464 42.0967 158.601 41.8883 160.29 42.8888C161.936 43.806 163.239 45.2443 163.979 46.9745L164 48.8714ZM102.059 42.326C99.6303 41.7319 98.0357 43.0347 96.5036 44.7232L96.4871 44.6229L96.4871 44.6227C96.4673 44.5012 96.4557 44.4294 96.4306 44.3375C95.9824 43.2536 95.0444 42.451 93.9083 42.1696C92.7207 42.0973 92.3108 42.9972 91.9384 43.8146L91.9281 43.8372C91.1255 45.4527 90.7086 47.2246 90.7086 49.0277C90.7503 50.3722 90.7503 51.748 90.7503 53.0716C90.761 54.3037 90.7571 55.5419 90.7531 56.7828C90.7454 59.1636 90.7378 61.5545 90.8337 63.9319C90.8754 65.2868 91.3027 66.6001 92.0844 67.7153C92.5847 68.5283 93.5331 68.9556 94.4712 68.8097C95.4405 68.695 96.2534 68.0176 96.5348 67.0795C96.712 66.6105 96.785 66.0998 96.7433 65.5995C96.7182 65.2832 96.6875 64.9678 96.6568 64.6526V64.6525V64.6524V64.6523V64.6522C96.5854 63.9184 96.514 63.185 96.514 62.4415C96.4202 59.2522 96.6078 56.115 97.8064 53.0925C98.217 52.0577 98.8031 51.1178 99.3894 50.1776L99.3895 50.1775C99.9192 49.328 100.449 48.4783 100.85 47.5581C101.089 47.0265 101.548 47.1516 101.861 47.5581C102.413 48.2668 102.778 49.1111 102.903 50.0074C103.111 52.1649 103.143 54.3327 102.997 56.5006C102.799 59.3147 102.768 62.1392 102.913 64.9638C102.924 65.1097 102.945 65.2556 102.986 65.4015C103.435 67.215 105.269 68.3302 107.082 67.8821C108.719 67.6215 109.49 66.1832 109.063 64.2029C109.047 64.1247 109.026 64.0492 109.005 63.9736C108.985 63.898 108.964 63.8225 108.948 63.7443C108.75 62.9209 108.635 62.0871 108.583 61.2429C108.51 58.4705 108.75 55.6981 109.313 52.9778L109.354 52.7495C109.673 50.9892 109.994 49.2121 111.053 47.6936C111.129 47.5859 111.204 47.4702 111.279 47.3527C111.65 46.7767 112.046 46.16 112.773 46.2553C113.556 46.3577 113.797 47.1178 114.018 47.8139L114.057 47.9359C114.07 47.9772 114.083 48.0181 114.097 48.0584C114.795 50.393 115.16 52.8111 115.191 55.2395C115.295 58.4042 115.319 61.5749 115.344 64.7471V64.7483C115.351 65.7233 115.359 66.6985 115.368 67.6736C115.379 69.0077 115.4 69.039 116.63 69.4871C116.838 69.5705 117.067 69.6331 117.286 69.6747C119.391 70.1333 120.944 68.9556 121.028 66.8294C121.037 66.5091 121.046 66.1886 121.056 65.8679V65.8678V65.8676V65.8675V65.8674C121.113 63.9238 121.171 61.9736 121.09 60.0235C121.028 56.8863 120.684 53.7595 120.09 50.6744C119.496 48.0375 118.641 45.5153 116.786 43.4725C114.139 40.5646 110.178 40.7939 107.854 44.004C107.291 44.8274 106.822 45.7133 106.478 46.6513C105.415 44.7232 104.362 42.8888 102.059 42.326ZM29.1634 59.2314C29.1009 60.9198 29.1426 62.6083 29.3197 64.2967C29.3719 64.797 29.5386 65.2764 29.8096 65.6933C30.6121 66.6522 30.4871 68.0801 29.5282 68.8826C29.4996 68.9031 29.4726 68.9251 29.446 68.9468C29.4046 68.9806 29.3641 69.0136 29.3197 69.039C28.0586 70.1125 26.5682 70.1855 25.5155 69.2266C24.5358 68.2052 23.9417 66.8815 23.8271 65.464C23.2226 61.1178 23.2017 56.7091 23.7437 52.3629C23.7995 51.8509 23.8561 51.3392 23.9127 50.8275L23.913 50.8249L23.9133 50.8222L23.9136 50.8196C24.4492 45.9798 24.9838 41.1497 24.7859 36.2601C24.7859 35.6972 24.6088 35.5096 24.0564 35.4367C22.5451 35.2178 21.5028 33.8108 21.7217 32.2995C21.7305 32.2203 21.7467 32.1485 21.7641 32.0717L21.7738 32.0285C21.9302 31.3615 22.5034 30.8612 23.1913 30.8091C24.2752 30.6215 24.9423 30.2358 24.9423 28.9226C24.9423 27.6093 26.1826 27.2862 27.9752 27.7344C28.7778 28.0158 29.5074 28.4744 30.1327 29.0581C30.362 29.2769 30.6851 29.3499 30.9874 29.2665C34.0724 28.5682 37.22 28.1305 40.3781 27.9429C41.931 27.7969 43.4944 27.7344 45.0474 27.7553C46.0584 27.7657 47.0277 28.2138 47.6947 28.9747C48.2888 29.6313 48.7787 30.3817 48.3618 31.3406C47.997 32.362 47.0485 33.0708 45.9646 33.1333C45.5998 33.1854 45.2246 33.1646 44.8702 33.0603C43.0549 32.4105 41.2498 32.7304 39.4448 33.0503L39.3879 33.0603C36.8136 33.4981 34.2809 34.1339 31.7586 34.8217C31.3417 34.8634 31.0082 35.2074 30.9874 35.6243C30.8901 36.3606 30.7872 37.0969 30.6842 37.8336L30.6842 37.8336L30.6842 37.8337L30.6842 37.8338L30.6842 37.8338C30.3017 40.5696 29.9186 43.3109 29.82 46.0781V46.9536C29.8826 48.2773 30.2995 48.6733 31.6544 48.517C33.1761 48.3606 34.7082 48.2877 36.2403 48.2877C37.5014 48.2877 38.773 48.3815 40.0237 48.5482C41.0347 48.6837 42.0144 49.0277 42.8795 49.5592C43.9322 50.1116 44.3282 51.4144 43.7758 52.4671C43.6612 52.686 43.5048 52.884 43.3277 53.0508C42.744 53.5406 41.9415 53.6657 41.2431 53.3843C37.8201 52.5542 34.387 52.9132 30.9536 53.2722L30.7789 53.2905C29.8826 53.3113 29.1634 54.0514 29.1843 54.9581C29.1843 54.9841 29.1869 55.0102 29.1895 55.0362L29.1895 55.0363L29.1895 55.0364C29.1921 55.0624 29.1947 55.0884 29.1947 55.1144C29.1478 56.1468 29.1536 57.1791 29.1595 58.207V58.2075V58.2079V58.2084C29.1615 58.5499 29.1634 58.8909 29.1634 59.2314ZM128.344 45.9009C126.093 49.5801 124.874 53.7908 124.832 58.1057C124.832 60.2632 125.207 62.3998 125.937 64.4114C126.969 67.2567 129.126 68.6117 131.992 69.039C135.359 69.4976 138.559 68.7263 141.654 67.5173C143.124 67.0066 144.301 65.8705 144.875 64.4218C145.177 63.6193 145.365 62.7125 144.76 62.0142C144.185 61.3496 143.383 61.5252 142.642 61.6875L142.53 61.7119C140.987 62.0871 139.517 62.7125 138.173 63.5567C137.193 64.13 136.099 64.4739 134.963 64.5677C133.003 64.7657 131.523 63.8798 130.94 62.2018C130.752 61.5764 130.648 60.9198 130.637 60.2632C130.606 59.6066 130.721 59.4086 131.43 59.6066C133.608 60.1902 135.911 60.1069 138.037 59.3669C140.997 58.3663 143.217 56.6049 143.937 53.4156C144.437 51.1852 144.27 48.986 142.53 47.308C141.216 46.0573 139.778 44.9212 138.256 43.9206C134.296 41.2733 130.679 42.2113 128.344 45.9009ZM133.16 54.906C131.93 54.3745 131.304 53.3843 131.304 51.6959H131.325C131.534 50.0908 132.451 48.6629 133.837 47.8083C134.546 47.3288 135.484 47.3705 136.141 47.9125C137.297 48.7359 138.1 49.9657 138.392 51.3519C138.548 52.0815 138.381 52.8528 137.944 53.4573C136.828 54.9164 134.9 55.5001 133.16 54.906ZM0.022034 40.8356V32.5601C0.12626 29.9649 2.315 27.9533 4.91021 28.0575C5.47303 28.0784 6.03585 28.2034 6.55698 28.4327C7.75557 28.9747 8.29755 30.3713 7.79726 31.5803C7.31783 32.9144 6.98431 34.2902 6.80713 35.6973C6.57783 38.6468 6.40064 41.5964 6.27556 44.5564C6.05669 49.799 5.95247 55.0624 5.95247 60.3153C5.9212 62.0976 6.42149 63.8486 7.39079 65.339C7.52628 65.5474 7.6305 65.7663 7.7243 65.9956C8.32881 67.4131 7.7243 68.3511 6.19218 68.3928H4.52458C3.055 68.3928 2.20036 67.6632 1.64797 66.3604C0.657823 63.9945 0.45978 61.5556 0.313864 59.1063C0.0220328 53.5302 -0.0405013 48.0063 0.022034 40.8356ZM71.8021 57.8869C71.9898 60.2424 71.9481 62.6083 71.6666 64.9534C71.6458 67.5694 72.6464 68.5804 74.9914 68.5804H75.6481C77.4929 68.4241 78.2016 67.4339 77.7951 65.6204C77.5137 64.797 77.2844 63.9632 77.0968 63.1086C76.7633 60.1903 76.8362 57.2407 77.3157 54.3432C77.6283 51.8731 78.5038 49.5071 79.8796 47.4331C80.432 46.6618 80.7968 46.6514 81.2762 47.4747C81.6515 48.1418 81.985 48.8297 82.2664 49.5384C82.5895 50.3409 83.3816 50.8516 84.2467 50.81C84.4864 50.8308 84.7261 50.81 84.9554 50.7683C86.4041 50.4764 87.3526 49.059 87.0608 47.5998C86.696 45.3485 85.143 43.4725 83.0064 42.7012C80.9427 41.8257 79.2022 42.3677 77.5971 43.7643C77.5762 43.7747 77.5554 43.7956 77.545 43.8164C77.3261 44.004 77.1385 44.0666 76.8779 43.8164C76.3776 43.3787 75.7523 43.1181 75.0852 43.0556C73.0112 42.6908 71.5937 43.4621 71.2602 45.1609C71.1768 45.7029 71.1559 46.2657 71.1976 46.8181C71.2684 48.1359 71.3457 49.4536 71.4231 50.7714C71.5624 53.1432 71.7016 55.515 71.8021 57.8869Z" fill="#031C06"/>
<path d="M23.38 103.071L18.66 96.8714V103.071H15.24V89.0314H18.66V95.1914L23.34 89.0314H27.36L21.92 95.9114L27.56 103.071H23.38ZM32.6053 93.7714C33.0053 93.158 33.5053 92.678 34.1053 92.3314C34.7053 91.9714 35.372 91.7914 36.1053 91.7914V95.4114H35.1653C34.312 95.4114 33.672 95.598 33.2453 95.9714C32.8186 96.3314 32.6053 96.9714 32.6053 97.8914V103.071H29.1853V91.9114H32.6053V93.7714ZM39.46 90.7514C38.86 90.7514 38.3667 90.578 37.98 90.2314C37.6067 89.8714 37.42 89.4314 37.42 88.9114C37.42 88.378 37.6067 87.938 37.98 87.5914C38.3667 87.2314 38.86 87.0514 39.46 87.0514C40.0467 87.0514 40.5267 87.2314 40.9 87.5914C41.2867 87.938 41.48 88.378 41.48 88.9114C41.48 89.4314 41.2867 89.8714 40.9 90.2314C40.5267 90.578 40.0467 90.7514 39.46 90.7514ZM41.16 91.9114V103.071H37.74V91.9114H41.16ZM48.1784 103.231C47.2051 103.231 46.3384 103.065 45.5784 102.731C44.8184 102.398 44.2184 101.945 43.7784 101.371C43.3384 100.785 43.0918 100.131 43.0384 99.4114H46.4184C46.4584 99.798 46.6384 100.111 46.9584 100.351C47.2784 100.591 47.6718 100.711 48.1384 100.711C48.5651 100.711 48.8918 100.631 49.1184 100.471C49.3584 100.298 49.4784 100.078 49.4784 99.8114C49.4784 99.4914 49.3118 99.258 48.9784 99.1114C48.6451 98.9514 48.1051 98.778 47.3584 98.5914C46.5584 98.4047 45.8918 98.2114 45.3584 98.0114C44.8251 97.798 44.3651 97.4714 43.9784 97.0314C43.5918 96.578 43.3984 95.9714 43.3984 95.2114C43.3984 94.5714 43.5718 93.9914 43.9184 93.4714C44.2784 92.938 44.7984 92.518 45.4784 92.2114C46.1718 91.9047 46.9918 91.7514 47.9384 91.7514C49.3384 91.7514 50.4384 92.098 51.2384 92.7914C52.0518 93.4847 52.5184 94.4047 52.6384 95.5514H49.4784C49.4251 95.1647 49.2518 94.858 48.9584 94.6314C48.6784 94.4047 48.3051 94.2914 47.8384 94.2914C47.4384 94.2914 47.1318 94.3714 46.9184 94.5314C46.7051 94.678 46.5984 94.8847 46.5984 95.1514C46.5984 95.4714 46.7651 95.7114 47.0984 95.8714C47.4451 96.0314 47.9784 96.1914 48.6984 96.3514C49.5251 96.5647 50.1984 96.778 50.7184 96.9914C51.2384 97.1914 51.6918 97.5247 52.0784 97.9914C52.4784 98.4447 52.6851 99.058 52.6984 99.8314C52.6984 100.485 52.5118 101.071 52.1384 101.591C51.7784 102.098 51.2518 102.498 50.5584 102.791C49.8784 103.085 49.0851 103.231 48.1784 103.231ZM61.6508 91.7914C62.9308 91.7914 63.9574 92.218 64.7308 93.0714C65.5041 93.9114 65.8908 95.0714 65.8908 96.5514V103.071H62.4908V97.0114C62.4908 96.2647 62.2974 95.6847 61.9108 95.2714C61.5241 94.858 61.0041 94.6514 60.3508 94.6514C59.6974 94.6514 59.1774 94.858 58.7908 95.2714C58.4041 95.6847 58.2108 96.2647 58.2108 97.0114V103.071H54.7908V88.2714H58.2108V93.4114C58.5574 92.918 59.0308 92.5247 59.6308 92.2314C60.2308 91.938 60.9041 91.7914 61.6508 91.7914ZM69.9873 90.7514C69.3873 90.7514 68.894 90.578 68.5073 90.2314C68.134 89.8714 67.9473 89.4314 67.9473 88.9114C67.9473 88.378 68.134 87.938 68.5073 87.5914C68.894 87.2314 69.3873 87.0514 69.9873 87.0514C70.574 87.0514 71.054 87.2314 71.4273 87.5914C71.814 87.938 72.0073 88.378 72.0073 88.9114C72.0073 89.4314 71.814 89.8714 71.4273 90.2314C71.054 90.578 70.574 90.7514 69.9873 90.7514ZM71.6873 91.9114V103.071H68.2673V91.9114H71.6873ZM82.7658 94.6314V97.4714H73.9658V94.6314H82.7658ZM96.4673 93.5514C96.4673 94.3647 96.2807 95.1114 95.9073 95.7914C95.534 96.458 94.9607 96.998 94.1873 97.4114C93.414 97.8247 92.454 98.0314 91.3073 98.0314H89.1873V103.071H85.7673V89.0314H91.3073C92.4273 89.0314 93.374 89.2247 94.1473 89.6114C94.9207 89.998 95.5007 90.5314 95.8873 91.2114C96.274 91.8914 96.4673 92.6714 96.4673 93.5514ZM91.0473 95.3114C91.7007 95.3114 92.1873 95.158 92.5073 94.8514C92.8273 94.5447 92.9873 94.1114 92.9873 93.5514C92.9873 92.9914 92.8273 92.558 92.5073 92.2514C92.1873 91.9447 91.7007 91.7914 91.0473 91.7914H89.1873V95.3114H91.0473ZM103.328 103.231C102.234 103.231 101.248 102.998 100.368 102.531C99.5011 102.065 98.8145 101.398 98.3078 100.531C97.8145 99.6647 97.5678 98.6514 97.5678 97.4914C97.5678 96.3447 97.8211 95.338 98.3278 94.4714C98.8345 93.5914 99.5278 92.918 100.408 92.4514C101.288 91.9847 102.274 91.7514 103.368 91.7514C104.461 91.7514 105.448 91.9847 106.328 92.4514C107.208 92.918 107.901 93.5914 108.408 94.4714C108.914 95.338 109.168 96.3447 109.168 97.4914C109.168 98.638 108.908 99.6514 108.388 100.531C107.881 101.398 107.181 102.065 106.288 102.531C105.408 102.998 104.421 103.231 103.328 103.231ZM103.328 100.271C103.981 100.271 104.534 100.031 104.988 99.5514C105.454 99.0714 105.688 98.3847 105.688 97.4914C105.688 96.598 105.461 95.9114 105.008 95.4314C104.568 94.9514 104.021 94.7114 103.368 94.7114C102.701 94.7114 102.148 94.9514 101.708 95.4314C101.268 95.898 101.048 96.5847 101.048 97.4914C101.048 98.3847 101.261 99.0714 101.688 99.5514C102.128 100.031 102.674 100.271 103.328 100.271ZM117.782 91.7914C119.089 91.7914 120.129 92.218 120.902 93.0714C121.689 93.9114 122.082 95.0714 122.082 96.5514V103.071H118.682V97.0114C118.682 96.2647 118.489 95.6847 118.102 95.2714C117.716 94.858 117.196 94.6514 116.542 94.6514C115.889 94.6514 115.369 94.858 114.982 95.2714C114.596 95.6847 114.402 96.2647 114.402 97.0114V103.071H110.982V91.9114H114.402V93.3914C114.749 92.898 115.216 92.5114 115.802 92.2314C116.389 91.938 117.049 91.7914 117.782 91.7914ZM131.259 91.7914C132.565 91.7914 133.605 92.218 134.379 93.0714C135.165 93.9114 135.559 95.0714 135.559 96.5514V103.071H132.159V97.0114C132.159 96.2647 131.965 95.6847 131.579 95.2714C131.192 94.858 130.672 94.6514 130.019 94.6514C129.365 94.6514 128.845 94.858 128.459 95.2714C128.072 95.6847 127.879 96.2647 127.879 97.0114V103.071H124.459V91.9114H127.879V93.3914C128.225 92.898 128.692 92.5114 129.279 92.2314C129.865 91.938 130.525 91.7914 131.259 91.7914ZM143.015 103.231C141.922 103.231 140.935 102.998 140.055 102.531C139.189 102.065 138.502 101.398 137.995 100.531C137.502 99.6647 137.255 98.6514 137.255 97.4914C137.255 96.3447 137.509 95.338 138.015 94.4714C138.522 93.5914 139.215 92.918 140.095 92.4514C140.975 91.9847 141.962 91.7514 143.055 91.7514C144.149 91.7514 145.135 91.9847 146.015 92.4514C146.895 92.918 147.589 93.5914 148.095 94.4714C148.602 95.338 148.855 96.3447 148.855 97.4914C148.855 98.638 148.595 99.6514 148.075 100.531C147.569 101.398 146.869 102.065 145.975 102.531C145.095 102.998 144.109 103.231 143.015 103.231ZM143.015 100.271C143.669 100.271 144.222 100.031 144.675 99.5514C145.142 99.0714 145.375 98.3847 145.375 97.4914C145.375 96.598 145.149 95.9114 144.695 95.4314C144.255 94.9514 143.709 94.7114 143.055 94.7114C142.389 94.7114 141.835 94.9514 141.395 95.4314C140.955 95.898 140.735 96.5847 140.735 97.4914C140.735 98.3847 140.949 99.0714 141.375 99.5514C141.815 100.031 142.362 100.271 143.015 100.271Z" fill="#031C06"/>
</svg>
