<svg width="14" height="16" viewBox="0 0 14 16" fill="none" xmlns="http://www.w3.org/2000/svg">
<path d="M13.5605 4.07219V14.4609C13.5605 15.3095 12.87 16 12.0214 16H4.99939C4.15076 16 3.46032 15.3095 3.46032 14.4609V7.70597C3.67986 7.74249 3.90382 7.76617 4.13366 7.76617C4.29665 7.76617 4.45662 7.75406 4.61463 7.73537V14.4609C4.61463 14.673 4.78719 14.8457 4.99939 14.8457H12.0214C12.2335 14.8457 12.4061 14.673 12.4061 14.4609V4.07219C12.4061 3.85999 12.2335 3.68743 12.0214 3.68743H8.21243C8.21243 3.28614 8.15213 2.89938 8.04406 2.53315H12.0214C12.87 2.53312 13.5605 3.22356 13.5605 4.07219ZM4.06939 7.25977C2.06778 7.25977 0.439453 5.63145 0.439453 3.62993C0.439485 1.62832 2.06778 0 4.06939 0C6.07093 0 7.69932 1.62832 7.69932 3.62993C7.69932 5.63145 6.07093 7.25977 4.06939 7.25977ZM4.06939 6.49022C5.6465 6.49022 6.9297 5.20724 6.9297 3.62993C6.9297 2.05253 5.64669 0.769551 4.06939 0.769551C2.49201 0.769551 1.209 2.05253 1.209 3.62993C1.209 5.20724 2.4922 6.49022 4.06939 6.49022ZM6.24639 4.01472C6.45877 4.01472 6.63115 3.84235 6.63115 3.62997C6.63115 3.41758 6.45877 3.24521 6.24639 3.24521H4.45415V1.73477C4.45415 1.52238 4.28177 1.35001 4.06939 1.35001C3.857 1.35001 3.68463 1.52238 3.68463 1.73477V3.62997C3.68463 3.84235 3.857 4.01472 4.06939 4.01472H6.24639ZM10.6873 7.13438H6.51898C6.30659 7.13438 6.13422 7.30675 6.13422 7.51914C6.13422 7.73156 6.30659 7.9039 6.51898 7.9039H10.6873C10.8998 7.9039 11.072 7.73153 11.072 7.51914C11.0721 7.30675 10.8998 7.13438 10.6873 7.13438ZM10.6941 9.46833H6.52575C6.31336 9.46833 6.14099 9.64061 6.14099 9.85309C6.14099 10.0656 6.31336 10.2379 6.52575 10.2379H10.6941C10.9065 10.2379 11.0788 10.0656 11.0788 9.85309C11.0788 9.64061 10.9067 9.46833 10.6941 9.46833ZM10.6941 11.8989H6.52575C6.31336 11.8989 6.14099 12.0714 6.14099 12.2836C6.14099 12.4961 6.31336 12.6684 6.52575 12.6684H10.6941C10.9065 12.6684 11.0788 12.4961 11.0788 12.2836C11.0788 12.0713 10.9067 11.8989 10.6941 11.8989Z" fill="black"/>
</svg>
